<svg width="17" height="17" viewBox="0 0 17 17" fill="none" xmlns="http://www.w3.org/2000/svg">
<path d="M9.56434e-06 8.49805C0.000435885 6.63451 0.613269 4.82275 1.74419 3.34161C2.87512 1.86047 4.46146 0.792025 6.25907 0.300722C8.05668 -0.190581 9.96593 -0.0775169 11.693 0.622514C13.42 1.32254 14.8692 2.57074 15.8174 4.17501C16.7656 5.77928 17.1603 7.6507 16.9408 9.50127C16.7213 11.3518 15.8997 13.079 14.6025 14.4169C13.3053 15.7548 11.6043 16.6293 9.76141 16.9059C7.9185 17.1824 6.03579 16.8457 4.40301 15.9474L1.09821 16.9538C0.950803 16.9987 0.793964 17.0027 0.644467 16.9654C0.494971 16.928 0.35844 16.8507 0.24948 16.7418C0.14052 16.6328 0.063229 16.4963 0.0258745 16.3468C-0.01148 16.1973 -0.00749293 16.0405 0.0374095 15.893L1.04381 12.5831C0.356932 11.3313 -0.00213658 9.92599 9.56434e-06 8.49805V8.49805ZM5.10001 7.64805C5.10001 7.87349 5.18956 8.08969 5.34896 8.24909C5.50837 8.4085 5.72457 8.49805 5.95 8.49805H11.05C11.2754 8.49805 11.4916 8.4085 11.651 8.24909C11.8104 8.08969 11.9 7.87349 11.9 7.64805C11.9 7.42262 11.8104 7.20642 11.651 7.04701C11.4916 6.88761 11.2754 6.79805 11.05 6.79805H5.95C5.72457 6.79805 5.50837 6.88761 5.34896 7.04701C5.18956 7.20642 5.10001 7.42262 5.10001 7.64805ZM5.95 10.1981C5.72457 10.1981 5.50837 10.2876 5.34896 10.447C5.18956 10.6064 5.10001 10.8226 5.10001 11.048C5.10001 11.2735 5.18956 11.4897 5.34896 11.6491C5.50837 11.8085 5.72457 11.898 5.95 11.898H9.35C9.57544 11.898 9.79164 11.8085 9.95104 11.6491C10.1104 11.4897 10.2 11.2735 10.2 11.048C10.2 10.8226 10.1104 10.6064 9.95104 10.447C9.79164 10.2876 9.57544 10.1981 9.35 10.1981H5.95Z" fill="black"/>
</svg>
