<svg width="18" height="20" viewBox="0 0 18 20" fill="none" xmlns="http://www.w3.org/2000/svg">
<path d="M10.6683 19.1667H7.33166C7.1226 19.1667 6.91981 19.0953 6.75691 18.9642C6.59402 18.8332 6.48082 18.6504 6.43608 18.4462L6.063 16.7192C5.5653 16.5011 5.09338 16.2284 4.65591 15.9061L2.972 16.4423C2.77268 16.5059 2.55762 16.4994 2.36252 16.4238C2.16743 16.3483 2.00404 16.2083 1.8995 16.0271L0.227496 13.1387C0.124046 12.9573 0.085213 12.7462 0.117351 12.5399C0.149489 12.3335 0.250696 12.1442 0.404412 12.0029L1.71066 10.8112C1.65126 10.2714 1.65126 9.72673 1.71066 9.18692L0.404412 7.998C0.250478 7.85662 0.149134 7.66715 0.116991 7.46063C0.0848471 7.25412 0.123811 7.0428 0.227496 6.86133L1.89583 3.97108C2.00038 3.78987 2.16376 3.64987 2.35886 3.57434C2.55395 3.4988 2.76901 3.49227 2.96833 3.55583L4.65225 4.09208C4.87591 3.92708 5.10875 3.77308 5.34891 3.63375C5.58083 3.50358 5.81916 3.38533 6.063 3.27992L6.437 1.55475C6.48152 1.35051 6.59451 1.16763 6.75723 1.03642C6.91995 0.905208 7.12263 0.833552 7.33166 0.833332H10.6683C10.8774 0.833552 11.08 0.905208 11.2428 1.03642C11.4055 1.16763 11.5185 1.35051 11.563 1.55475L11.9407 3.28083C12.1973 3.3945 12.4485 3.52192 12.6914 3.664C12.9178 3.79508 13.1369 3.939 13.3477 4.09392L15.0326 3.55767C15.2318 3.49434 15.4466 3.50099 15.6415 3.57651C15.8364 3.65204 15.9997 3.7919 16.1042 3.97292L17.7725 6.86317C17.9852 7.23625 17.9118 7.70833 17.5956 7.99892L16.2893 9.19058C16.3487 9.7304 16.3487 10.2751 16.2893 10.8149L17.5956 12.0066C17.9118 12.2981 17.9852 12.7692 17.7725 13.1423L16.1042 16.0326C15.9996 16.2138 15.8362 16.3538 15.6411 16.4293C15.446 16.5049 15.231 16.5114 15.0317 16.4478L13.3477 15.9116C12.9106 16.2337 12.439 16.5061 11.9416 16.7237L11.563 18.4462C11.5183 18.6502 11.4052 18.8329 11.2425 18.9639C11.0798 19.095 10.8772 19.1665 10.6683 19.1667V19.1667ZM8.99633 6.33333C8.02387 6.33333 7.09124 6.71964 6.4036 7.40727C5.71597 8.09491 5.32966 9.02754 5.32966 10C5.32966 10.9725 5.71597 11.9051 6.4036 12.5927C7.09124 13.2804 8.02387 13.6667 8.99633 13.6667C9.96879 13.6667 10.9014 13.2804 11.5891 12.5927C12.2767 11.9051 12.663 10.9725 12.663 10C12.663 9.02754 12.2767 8.09491 11.5891 7.40727C10.9014 6.71964 9.96879 6.33333 8.99633 6.33333V6.33333Z" fill="black"/>
</svg>
