<svg width="18" height="18" viewBox="0 0 18 18" fill="none" xmlns="http://www.w3.org/2000/svg">
<path d="M9.85961 0.457322C9.52037 0.162882 9.08043 0 8.62438 0C8.16834 0 7.72839 0.162882 7.38916 0.457322L0.612375 6.33979C0.419696 6.50718 0.265606 6.71183 0.160107 6.94048C0.0546087 7.16912 5.93373e-05 7.41664 0 7.66697V16.0645C0 16.5381 0.194722 16.9922 0.541329 17.3271C0.887937 17.6619 1.35804 17.85 1.84821 17.85H4.3125C4.80268 17.85 5.27278 17.6619 5.61938 17.3271C5.96599 16.9922 6.16071 16.5381 6.16071 16.0645V11.3033C6.16071 11.1455 6.22562 10.9941 6.34116 10.8825C6.45669 10.7709 6.61339 10.7082 6.77679 10.7082H10.4732C10.6366 10.7082 10.7933 10.7709 10.9088 10.8825C11.0244 10.9941 11.0893 11.1455 11.0893 11.3033V16.0645C11.0893 16.5381 11.284 16.9922 11.6306 17.3271C11.9772 17.6619 12.4473 17.85 12.9375 17.85H15.4018C15.892 17.85 16.3621 17.6619 16.7087 17.3271C17.0553 16.9922 17.25 16.5381 17.25 16.0645V7.66697C17.2499 7.41664 17.1954 7.16912 17.0899 6.94048C16.9844 6.71183 16.8303 6.50718 16.6376 6.33979L9.86084 0.457322H9.85961Z" fill="black"/>
</svg>
